<?xml version="1.0" standalone="no"?>
<!DOCTYPE svg PUBLIC "-//W3C//DTD SVG 20010904//EN"
 "http://www.w3.org/TR/2001/REC-SVG-20010904/DTD/svg10.dtd">
<svg version="1.0" xmlns="http://www.w3.org/2000/svg"
 width="200.000000pt" height="200.000000pt" viewBox="0 0 200.000000 200.000000"
 preserveAspectRatio="xMidYMid meet">
<metadata>
Created by potrace 1.11, written by Peter Selinger 2001-2013
</metadata>
<g transform="translate(0.000000,200.000000) scale(0.100000,-0.100000)"
fill="#000000" stroke="none">
<path d="M1364 1937 c-272 -317 -296 -347 -283 -365 8 -9 40 -48 73 -87 33
-38 62 -72 64 -75 2 -3 15 9 29 25 14 17 46 54 72 84 25 30 48 58 49 62 7 19
22 5 113 -102 52 -62 99 -117 104 -123 6 -6 49 -56 95 -110 l85 -99 0 -244 0
-243 -382 0 -383 0 0 225 c0 124 -3 225 -7 225 -5 -1 -25 -22 -45 -48 -21 -26
-48 -58 -60 -72 -13 -14 -46 -52 -73 -85 l-50 -61 1 -199 c1 -110 2 -205 3
-210 1 -8 195 -11 616 -11 l615 0 0 404 0 403 -132 157 c-130 154 -173 204
-193 226 -6 6 -58 67 -115 136 -58 69 -107 127 -110 130 -3 3 -19 21 -36 42
l-32 36 -18 -21z"/>
<path d="M567 1901 c-21 -27 -46 -57 -55 -68 -10 -10 -40 -45 -67 -78 -28 -33
-52 -62 -55 -65 -3 -3 -30 -34 -60 -70 -30 -36 -57 -67 -60 -70 -3 -3 -25 -30
-50 -60 -25 -30 -50 -59 -56 -65 -6 -5 -33 -37 -60 -70 -27 -33 -61 -73 -77
-90 l-27 -30 2 -405 3 -405 350 0 350 0 0 115 0 115 -235 5 -235 5 0 242 0
242 25 27 c14 16 30 33 35 40 6 6 21 24 35 40 14 16 59 69 100 119 41 49 82
96 90 105 8 8 32 37 54 63 21 26 41 47 45 47 3 0 39 -41 80 -90 67 -82 91
-103 91 -82 0 4 17 25 38 48 60 66 87 98 95 112 9 13 -289 372 -307 372 -6 -1
-28 -23 -49 -49z"/>
<path d="M967 1538 c-14 -18 -33 -42 -43 -53 -20 -21 -115 -133 -149 -174 -11
-13 -27 -32 -35 -40 -8 -9 -72 -84 -141 -166 -70 -83 -136 -161 -148 -175 -12
-14 -32 -36 -44 -50 -17 -20 -22 -39 -23 -92 -3 -78 -18 -70 131 -70 47 0 90
1 95 1 6 1 10 11 10 24 0 18 44 82 80 117 3 3 41 48 85 100 44 52 82 97 85
100 3 3 28 32 55 65 70 84 75 89 84 79 4 -5 32 -38 62 -74 29 -36 56 -67 59
-70 3 -3 41 -48 85 -100 91 -108 104 -124 139 -165 14 -16 26 -38 26 -48 0
-10 7 -20 16 -24 13 -5 162 -8 211 -4 8 1 11 22 11 64 -1 63 -7 78 -68 147
-71 82 -130 151 -324 380 -119 140 -220 256 -225 258 -4 1 -20 -12 -34 -30z"/>
<path d="M1060 887 c0 -152 2 -167 18 -168 60 -3 141 -1 149 4 6 4 9 33 8 66
-2 55 -5 63 -51 117 -27 32 -57 67 -66 79 -9 11 -26 31 -37 44 l-21 24 0 -166z"/>
<path d="M383 205 l2 -160 616 -3 616 -2 0 162 1 163 -116 0 -117 0 0 -42 c0
-24 -4 -43 -10 -44 -5 0 -176 -1 -380 -1 l-370 -1 -5 44 -5 44 -117 0 -116 0
1 -160z"/>
</g>
</svg>
